<?xml version="1.0" standalone="no"?>
<!DOCTYPE svg PUBLIC "-//W3C//DTD SVG 20010904//EN"
 "http://www.w3.org/TR/2001/REC-SVG-20010904/DTD/svg10.dtd">
<svg version="1.0" xmlns="http://www.w3.org/2000/svg"
 width="512.000000pt" height="512.000000pt" viewBox="0 0 512.000000 512.000000"
 preserveAspectRatio="xMidYMid meet">

<g transform="translate(0.000000,512.000000) scale(0.100000,-0.100000)"
fill="#000000" stroke="none">
<path d="M2755 4783 c-91 -19 -191 -62 -274 -118 -46 -30 -394 -372 -1137
-1117 -1176 -1178 -1119 -1115 -1186 -1308 -30 -90 -32 -102 -32 -240 0 -138
2 -150 32 -240 63 -182 67 -188 596 -718 l481 -482 -533 0 c-441 0 -539 -2
-567 -14 -38 -16 -75 -68 -75 -104 0 -40 29 -88 63 -106 30 -16 186 -17 2150
-14 l2119 3 29 32 c16 18 31 44 35 58 9 35 -15 94 -49 119 -28 21 -37 21 -575
24 l-546 3 801 802 c440 441 815 823 832 850 146 217 179 477 91 720 -58 158
-53 151 -844 945 -770 772 -805 804 -944 863 -138 57 -320 74 -467 42z m299
-238 c33 -9 91 -32 130 -52 65 -33 131 -96 802 -767 672 -672 734 -737 767
-802 92 -180 88 -381 -13 -547 -21 -36 -162 -184 -399 -421 l-366 -366 -1063
1063 -1062 1062 377 377 c403 401 423 417 556 453 70 18 199 19 271 0z m-309
-2065 l1060 -1060 -430 -430 -430 -430 -685 0 -685 0 -562 563 c-489 490 -565
570 -592 624 -82 165 -82 340 0 506 27 54 107 139 642 675 337 336 614 612
617 612 3 0 482 -477 1065 -1060z"/>
</g>
</svg>
